<?xml version="1.0" encoding="UTF-8"?> <svg xmlns="http://www.w3.org/2000/svg" width="40" height="23" viewBox="0 0 40 23" fill="none"> <g clip-path="url(#clip0_12_226)"> <path fill-rule="evenodd" clip-rule="evenodd" d="M30.9985 4.64891C30.3286 7.13824 29.6617 9.62828 29.0084 12.122C28.6816 13.3687 28.3609 14.6163 27.9848 15.8499C27.6195 17.0485 27.1707 18.3278 26.5167 19.4163C25.8346 20.5523 24.9513 21.4394 23.7288 22.0073C23.2401 22.2341 22.7393 22.3898 22.2138 22.5012C21.4683 22.6592 20.7194 22.7242 19.9618 22.767C18.0857 22.8727 14.1058 22.857 12.2303 22.857L13.3801 18.5955C14.2505 18.5955 15.1207 18.5985 15.9909 18.5744C16.8307 18.5511 17.7548 18.5061 18.5818 18.3106C19.4874 18.0963 20.1708 17.7287 20.7693 16.9918C21.3146 16.3206 21.6812 15.4832 21.9815 14.6934C22.5301 13.251 23.0918 11.1858 23.4878 9.70054C23.9357 8.01926 24.3662 6.33373 24.8 4.64891H30.9985ZM38.7466 4.64887L35.4018 17.046H29.2035L32.5482 4.64887H38.7466ZM18.3059 0H24.5043C23.855 2.41991 23.2065 4.84001 22.5496 7.25797C22.0919 8.94244 21.6373 10.6276 21.1404 12.3013C20.9236 13.0309 20.7072 13.7584 20.4232 14.4667C20.1949 15.0357 19.9397 15.542 19.4679 15.9672C19.1155 16.2847 18.7313 16.4822 18.2838 16.6229C17.708 16.8041 17.1261 16.8705 16.5313 16.9192C15.6758 16.9893 14.8201 17.0072 13.9631 17.021C11.9923 17.0527 8.41337 17.0483 6.44255 17.0398C5.73437 17.0366 5.0262 17.0324 4.31802 17.0194C3.80464 17.0102 3.29179 16.9975 2.77912 16.9654C2.43681 16.9438 2.09715 16.9151 1.75891 16.8528C1.52941 16.8107 1.3084 16.754 1.09306 16.66C0.383821 16.35 0.0223834 15.7306 0.00130993 14.9762C-0.0109091 14.5445 0.0641764 14.1333 0.150596 13.7157C0.273318 13.1242 0.426145 12.5409 0.577556 11.9568C0.866564 10.841 1.39553 8.78217 1.80779 7.69839C2.1308 6.84907 2.55741 6.00383 3.36794 5.46619C3.82111 5.16567 4.2973 5.00594 4.82237 4.90022C5.21161 4.82194 5.6028 4.7805 5.99753 4.75111C6.6586 4.70205 7.3202 4.68665 7.98251 4.67496C8.92374 4.65849 9.86496 4.65495 10.8062 4.65211L13.1541 4.64893H15.5019L14.6657 7.74815C13.2702 7.74815 11.8751 7.74426 10.4796 7.7524C10.0723 7.75488 9.66556 7.75187 9.25861 7.77844C9.11411 7.78782 8.97297 7.79721 8.83325 7.84608C8.64943 7.90983 8.55858 8.0253 8.47783 8.19105C8.35971 8.43366 8.29153 8.68956 8.21627 8.94563C8.10134 9.33664 7.99491 9.72995 7.8883 10.1234C7.72414 10.7296 7.55998 11.3358 7.40414 11.9443C7.34659 12.1695 7.2901 12.3948 7.24157 12.6222C7.2074 12.7815 7.17658 12.9404 7.16135 13.103C7.14471 13.2808 7.13957 13.4943 7.24724 13.6594C7.35668 13.8269 7.54174 13.8659 7.7144 13.8908C7.90955 13.9193 8.10506 13.9255 8.30127 13.9314C8.62251 13.9411 8.94375 13.9425 9.26499 13.9441C10.1439 13.9484 11.0228 13.9486 11.9017 13.9431C12.3067 13.9406 12.7113 13.9377 13.116 13.9215C13.3947 13.9103 13.6699 13.9007 13.9444 13.8343C14.153 13.7839 14.3161 13.7045 14.4572 13.534C14.5527 13.4185 14.615 13.2905 14.672 13.1545C14.8137 12.8173 14.9127 12.4683 15.0159 12.1194C15.4121 10.7811 15.7689 9.43262 16.1335 8.08568L17.2225 4.04364L18.3059 0Z" fill="black"></path> </g> <defs> <clipPath id="clip0_12_226"> <rect width="40" height="22.8571" fill="white"></rect> </clipPath> </defs> </svg> 