<?xml version="1.0" encoding="UTF-8"?> <svg xmlns="http://www.w3.org/2000/svg" width="46" height="46" viewBox="0 0 46 46" fill="none"> <rect width="46" height="46" rx="3" fill="black"></rect> <g clip-path="url(#clip0_26_31)"> <path d="M23 9.6029C26.2087 9.59442 29.3146 10.7346 31.7557 12.8172L33.0414 12.2129C30.3124 9.70289 26.7399 8.30981 23.0321 8.30981C19.3243 8.30981 15.7519 9.70289 13.0228 12.2129L14.2764 12.8172C16.7091 10.7418 19.8023 9.60209 23 9.6029ZM14.2443 33.3565L12.9907 33.9608C15.7163 36.4777 19.29 37.8754 23 37.8754C26.7099 37.8754 30.2837 36.4777 33.0093 33.9608L31.7621 33.3565C29.3191 35.4395 26.2137 36.5836 23.0032 36.5836C19.7927 36.5836 16.6873 35.4395 14.2443 33.3565ZM37.1428 23.0965C37.1428 24.4208 36.3714 25.6679 35.0471 26.7415L36.3328 27.3843C36.963 26.8563 37.4752 26.2017 37.8362 25.463C38.1972 24.7244 38.399 23.9181 38.4285 23.0965C38.3963 22.2791 38.1931 21.4775 37.8322 20.7434C37.4712 20.0093 36.9605 19.359 36.3328 18.8343L35.0471 19.4772C36.3714 20.525 37.1428 21.7786 37.1428 23.0965ZM23 30.1679C20.3826 30.1853 17.7789 29.7882 15.2857 28.9915L13.6336 29.7886C16.6215 30.934 19.8004 31.4991 23 31.4536C26.1953 31.4975 29.3697 30.9324 32.3535 29.7886L30.7143 28.9915C28.221 29.7882 25.6174 30.1853 23 30.1679ZM23 16.025C25.6181 16.0117 28.2218 16.4131 30.7143 17.2143L32.3664 16.4172C29.38 15.2651 26.2006 14.6956 23 14.7393C19.8041 14.6952 16.6292 15.2625 13.6464 16.4108L15.2857 17.2143C17.7782 16.4131 20.3819 16.0117 23 16.025ZM8.85713 23.0965C8.85713 21.8108 9.62855 20.525 10.9528 19.4579L9.66713 18.815C9.03714 19.3419 8.525 19.9953 8.16395 20.7329C7.80291 21.4705 7.60102 22.2758 7.57141 23.0965C7.60359 23.9148 7.80668 24.7174 8.16761 25.4525C8.52854 26.1877 9.03933 26.8391 9.66713 27.3651L10.9528 26.7222C9.62855 25.6743 8.85713 24.4208 8.85713 23.0965ZM26.3878 22.8586L19.8243 20.1265C19.7775 20.1078 19.7263 20.1032 19.677 20.1133C19.6277 20.1234 19.5825 20.1478 19.5469 20.1834C19.5113 20.219 19.4869 20.2642 19.4768 20.3135C19.4667 20.3628 19.4713 20.414 19.49 20.4608L20.5314 22.9486C20.5568 23.0126 20.5568 23.0839 20.5314 23.1479L19.4771 25.7193C19.4584 25.7661 19.4538 25.8173 19.464 25.8666C19.4741 25.9159 19.4984 25.9611 19.534 25.9967C19.5696 26.0323 19.6149 26.0567 19.6642 26.0668C19.7135 26.0769 19.7647 26.0723 19.8114 26.0536L26.3878 23.3151C26.4296 23.2934 26.4647 23.2606 26.4891 23.2204C26.5136 23.1801 26.5265 23.1339 26.5265 23.0868C26.5265 23.0397 26.5136 22.9936 26.4891 22.9533C26.4647 22.9131 26.4296 22.8803 26.3878 22.8586Z" fill="white"></path> <path d="M23 41.0964C19.4411 41.0954 15.9623 40.0394 13.0034 38.0619C10.0444 36.0844 7.73811 33.2741 6.37589 29.9861C5.01366 26.6982 4.65668 23.0803 5.35006 19.5896C6.04343 16.0988 7.75603 12.892 10.2714 10.3743C13.6507 6.99847 18.2325 5.1033 23.0091 5.10572C25.3742 5.10691 27.7159 5.57393 29.9005 6.48012C32.0851 7.38632 34.0699 8.71392 35.7414 10.3872C37.413 12.0604 38.7386 14.0465 39.6426 16.232C40.5465 18.4175 41.0112 20.7597 41.01 23.1248C41.0088 25.4899 40.5418 27.8316 39.6356 30.0163C38.7294 32.2009 37.4018 34.1856 35.7286 35.8572C34.0584 37.5282 32.0735 38.8516 29.8887 39.7509C27.704 40.6502 25.3626 41.1075 23 41.0964ZM23 6.38215C19.6938 6.3821 16.4618 7.36257 13.7129 9.19956C10.964 11.0365 8.8217 13.6475 7.55688 16.7022C6.29206 19.7569 5.96159 23.1181 6.60728 26.3607C7.25296 29.6032 8.84579 32.5814 11.1843 34.9186C12.7274 36.5106 14.5717 37.7796 16.61 38.6519C18.6483 39.5242 20.8397 39.9822 23.0568 39.9994C25.2738 40.0165 27.4721 39.5924 29.5236 38.7518C31.5751 37.9111 33.4389 36.6707 35.0064 35.1028C36.5739 33.5348 37.8138 31.6707 38.6539 29.619C39.494 27.5672 39.9175 25.3688 39.8997 23.1518C39.882 20.9348 39.4234 18.7435 38.5505 16.7054C37.6777 14.6674 36.4081 12.8234 34.8157 11.2807C33.2679 9.72361 31.4266 8.48891 29.3985 7.64808C27.3703 6.80725 25.1955 6.37697 23 6.38215Z" fill="white"></path> </g> <defs> <clipPath id="clip0_26_31"> <rect width="36" height="36" fill="white" transform="translate(5 5)"></rect> </clipPath> </defs> </svg> 