<?xml version="1.0" encoding="UTF-8"?> <svg xmlns="http://www.w3.org/2000/svg" width="46" height="46" viewBox="0 0 46 46" fill="none"> <rect width="46" height="46" rx="3" fill="black"></rect> <path d="M10.9758 9.60155L12.5333 11.481C12.8303 11.2082 13.1394 10.9535 13.4606 10.705L11.903 8.81947L10.9758 9.60155ZM7.42424 23V22.3937H5V23.6063H7.42424C7.4303 23.4062 7.42424 23.2061 7.42424 23ZM18.2485 8.15258L17.4182 5.87908L16.2848 6.29134L17.1091 8.5709C17.4848 8.41327 17.8606 8.27383 18.2485 8.15258ZM11.4909 12.5237L9.61212 10.9656L8.8303 11.8932L10.6909 13.4513C10.9394 13.1361 11.1939 12.8208 11.4909 12.5237ZM15.7333 9.20748L14.5212 7.1098L13.4727 7.71607L14.6848 9.81374C15.0364 9.60155 15.3879 9.39542 15.7333 9.20748ZM9.82424 14.6881L7.72727 13.4756L7.12121 14.5123L9.21818 15.7248C9.40606 15.3793 9.61212 15.0276 9.82424 14.6881ZM8.58182 17.101L6.30303 16.2765L5.89091 17.4102L8.16364 18.2408C8.28485 17.8528 8.42424 17.4769 8.58182 17.101ZM19.2848 5.37588L19.703 7.76457C20.097 7.67969 20.497 7.613 20.9152 7.55844L20.497 5.16369L19.2848 5.37588ZM7.77576 19.6959L5.38788 19.2775L5.17576 20.4901L7.6 20.9084C7.62424 20.4901 7.69091 20.0899 7.77576 19.6959ZM35.3212 13.4513L37.1818 11.8932L36.4 10.9656L34.5212 12.5237C34.8182 12.8208 35.0727 13.1361 35.3212 13.4513ZM37.8485 18.2408L40.1212 17.4102L39.7091 16.2765L37.4303 17.101C37.5879 17.4769 37.7273 17.8528 37.8485 18.2408ZM35.0364 9.60155L34.1091 8.81947L32.5515 10.6807C32.8667 10.9293 33.1576 11.1839 33.4788 11.4567L35.0364 9.60155ZM38.4424 20.8902L40.8667 20.4719L40.6545 19.2593L38.2667 19.6777C38.3212 20.0899 38.3879 20.4901 38.4424 20.8902ZM27.7636 8.15258C28.1515 8.27383 28.5273 8.41327 28.903 8.5709L29.7273 6.29134L28.5939 5.87908L27.7636 8.15258ZM26.7273 5.37588L25.5152 5.16369L25.097 7.58875C25.497 7.64331 25.897 7.71 26.3091 7.79488L26.7273 5.37588ZM23.6121 7.42506V5H22.4V7.42506H23.0061H23.6121ZM32.5273 7.71607L31.4909 7.1098L30.2788 9.20748C30.6364 9.39542 30.9879 9.60155 31.3273 9.81374L32.5273 7.71607ZM36.7939 15.7248L38.8909 14.5123L38.2848 13.4635L36.1879 14.676C36.4 15.0276 36.6061 15.3793 36.7939 15.7248ZM32.5515 35.3193L34.1091 37.1805L35.0364 36.3985L33.4788 34.519C33.1818 34.8161 32.8667 35.0707 32.5515 35.3193ZM30.2788 36.7925L31.4909 38.8902L32.5394 38.2839L31.3273 36.1863C30.9758 36.3984 30.6242 36.6046 30.2788 36.7925ZM27.7636 37.8474L28.5939 40.1209L29.7273 39.7087L28.903 37.4291C28.5273 37.5867 28.1515 37.7262 27.7636 37.8474ZM34.5212 33.4763L36.3758 35.0344L37.1576 34.1068L35.297 32.5487C35.0727 32.8639 34.8182 33.1792 34.5212 33.4763ZM38.2364 26.3041L40.6242 26.7225L40.8364 25.5099L38.4121 25.0916C38.3879 25.5099 38.3212 25.9101 38.2364 26.3041ZM25.1151 38.4416L25.5333 40.8666L26.7455 40.6544L26.3273 38.2657C25.9151 38.3203 25.5152 38.387 25.1151 38.4416ZM38.5758 22.3937V23.6063H41V22.3937H38.5758ZM36.1879 31.3119L38.2848 32.5244L38.8909 31.4756L36.7939 30.2631C36.6061 30.6207 36.4 30.9724 36.1879 31.3119ZM37.4303 28.899L39.7091 29.7235L40.1212 28.5898L37.8485 27.7592C37.7273 28.1472 37.5879 28.5231 37.4303 28.899ZM22.4 38.5749V41H23.6121V38.5749H23.0061H22.4ZM9.21818 30.2752L7.12121 31.4877L7.72727 32.5365L9.82424 31.324C9.61212 30.9724 9.40606 30.6207 9.21818 30.2752ZM10.6909 32.5487L8.8303 34.1068L9.61212 35.0344L11.4909 33.4763C11.1939 33.1792 10.9394 32.8639 10.6909 32.5487ZM7.5697 25.1098L5.17576 25.5281L5.38788 26.7407L7.77576 26.3223C7.69091 25.9101 7.62424 25.5099 7.5697 25.1098ZM10.9758 36.3985L11.903 37.1805L13.4606 35.3193C13.1455 35.0707 12.8545 34.8161 12.5333 34.5433L10.9758 36.3985ZM8.16364 27.7592L5.89091 28.5898L6.30303 29.7235L8.58182 28.899C8.42424 28.5231 8.28485 28.1472 8.16364 27.7592ZM13.4848 38.2839L14.5333 38.8902L15.7455 36.7925C15.3879 36.6046 15.0364 36.3984 14.697 36.1863L13.4848 38.2839ZM19.2848 40.6241L20.497 40.8363L20.9152 38.4112C20.5152 38.3567 20.1152 38.29 19.703 38.2051L19.2848 40.6241ZM16.2848 39.7087L17.4182 40.1209L18.2485 37.8474C17.8606 37.7262 17.4848 37.5867 17.1091 37.4291L16.2848 39.7087ZM13.303 26.2981V18.8774H10.8788V19.902H12.1455V26.2981H13.303ZM14.7091 20.8902C14.3616 21.9952 14.3616 23.1803 14.7091 24.2853C14.8534 24.7341 15.091 25.1473 15.4061 25.4978C15.9597 26.0905 16.7409 26.4173 17.5515 26.3951C18.3703 26.4154 19.1575 26.0791 19.7091 25.4736C20.0242 25.123 20.2617 24.7098 20.4061 24.261C20.7536 23.156 20.7536 21.9709 20.4061 20.8659C20.2617 20.4172 20.0242 20.004 19.7091 19.6534C19.1545 19.0548 18.3669 18.7272 17.5515 18.7561C16.7304 18.7324 15.9399 19.0691 15.3879 19.6777C15.0793 20.0299 14.848 20.443 14.7091 20.8902ZM16.2061 20.4658C16.5321 20.0449 17.0344 19.7986 17.5667 19.7986C18.0989 19.7986 18.6013 20.0449 18.9273 20.4658C19.3403 21.093 19.5361 21.8385 19.4848 22.5877C19.5352 23.3369 19.3394 24.0821 18.9273 24.7097C18.5986 25.1263 18.0972 25.3694 17.5667 25.3694C17.0361 25.3694 16.5348 25.1263 16.2061 24.7097C15.7939 24.0821 15.5981 23.3369 15.6485 22.5877C15.5972 21.8385 15.7931 21.093 16.2061 20.4658ZM21.3333 23.2183H23.6364V24.2125H21.3333V23.2183ZM29.3576 23.9943C29.3808 23.3661 29.1641 22.7526 28.7515 22.2785C28.3726 21.8463 27.8231 21.6025 27.2485 21.6117C26.5891 21.5802 25.9699 21.9288 25.6545 22.5089V19.3624H24.5212V26.2981H25.6364L25.6061 25.4675C25.8995 26.075 26.5333 26.4424 27.2061 26.3951C27.7866 26.404 28.3414 26.1554 28.7212 25.7161C29.1473 25.2457 29.3753 24.6288 29.3576 23.9943ZM26.9333 25.4251C26.0424 25.4251 25.6 24.9461 25.6 23.9943C25.6 23.0424 26.0424 22.5999 26.9333 22.5999C27.8242 22.5999 28.2242 23.0667 28.2242 23.9943C28.2242 24.9219 27.7879 25.4251 26.9273 25.4251H26.9333ZM30.8485 20.8356C31.05 20.8649 31.2535 20.7968 31.3969 20.6522C31.5403 20.5075 31.6067 20.3034 31.5758 20.1021C31.5413 19.7243 31.2247 19.4351 30.8455 19.4351C30.4662 19.4351 30.1496 19.7243 30.1151 20.1021C30.0864 20.3041 30.1544 20.5078 30.2986 20.6521C30.4429 20.7964 30.6465 20.8644 30.8485 20.8356ZM30.2909 21.7147H31.4061V26.2981H30.2909V21.7147ZM33.3091 26.0313C33.5763 26.2881 33.9394 26.4202 34.3091 26.3951C34.564 26.4005 34.8174 26.3552 35.0545 26.2617C35.2149 26.1834 35.3638 26.0834 35.497 25.9646L35.0424 25.2068L34.9455 25.2917C34.9085 25.3212 34.8677 25.3457 34.8242 25.3644C34.7136 25.421 34.5909 25.4501 34.4667 25.4493C34.1636 25.4493 34.0061 25.2189 34.0061 24.7642V22.6423H35.2182V21.7147H34.0061V19.9687H32.903V21.739H32.2182V22.6666H32.903V24.7703C32.8751 25.2268 33.0201 25.677 33.3091 26.0313Z" fill="white"></path> </svg> 