<?xml version="1.0" encoding="UTF-8"?> <svg xmlns="http://www.w3.org/2000/svg" width="46" height="46" viewBox="0 0 46 46" fill="none"> <rect width="46" height="46" rx="3" fill="black"></rect> <path d="M38.3333 24.6667H31.6667V16.6667C31.6667 16.1363 31.456 15.6276 31.0809 15.2525C30.7058 14.8774 30.1971 14.6667 29.6667 14.6667C29.1362 14.6667 28.6275 14.8774 28.2525 15.2525C27.8774 15.6276 27.6667 16.1363 27.6667 16.6667V24.6667H18.3333V16.76C18.3333 16.2296 18.1226 15.7209 17.7475 15.3458C17.3725 14.9708 16.8638 14.76 16.3333 14.76C15.8029 14.76 15.2942 14.9708 14.9191 15.3458C14.544 15.7209 14.3333 16.2296 14.3333 16.76V24.6667H7.66667C7.31304 24.6667 6.97391 24.8072 6.72386 25.0572C6.47381 25.3073 6.33333 25.6464 6.33333 26V39.3334C6.33333 39.687 6.47381 40.0261 6.72386 40.2762C6.97391 40.5262 7.31304 40.6667 7.66667 40.6667H38.3333C38.687 40.6667 39.0261 40.5262 39.2761 40.2762C39.5262 40.0261 39.6667 39.687 39.6667 39.3334V26C39.6667 25.6464 39.5262 25.3073 39.2761 25.0572C39.0261 24.8072 38.687 24.6667 38.3333 24.6667ZM29 16.6667C29 16.4899 29.0702 16.3203 29.1953 16.1953C29.3203 16.0703 29.4899 16 29.6667 16C29.8435 16 30.013 16.0703 30.1381 16.1953C30.2631 16.3203 30.3333 16.4899 30.3333 16.6667V24.6667H29V16.6667ZM15.6667 16.76C15.6667 16.5832 15.7369 16.4137 15.8619 16.2886C15.987 16.1636 16.1565 16.0934 16.3333 16.0934C16.5101 16.0934 16.6797 16.1636 16.8047 16.2886C16.9298 16.4137 17 16.5832 17 16.76V24.6667H15.6667V16.76ZM38.3333 39.3334H7.66667V26H38.3333V39.3334ZM6.33333 17.6667H5C5.00353 14.3968 6.30406 11.2618 8.61625 8.94962C10.9284 6.63744 14.0634 5.3369 17.3333 5.33337V6.66671C14.417 6.67024 11.6212 7.83029 9.55906 9.89243C7.49692 11.9546 6.33686 14.7504 6.33333 17.6667Z" fill="white"></path> <path d="M11 17.6667H9.66669C9.66845 15.6339 10.4768 13.6849 11.9142 12.2475C13.3515 10.8101 15.3006 10.0018 17.3334 10V11.3334C15.6542 11.3351 14.0443 12.003 12.857 13.1903C11.6696 14.3777 11.0018 15.9875 11 17.6667ZM41 17.6667H39.6667C39.6632 14.7504 38.5031 11.9546 36.441 9.89243C34.3788 7.83029 31.583 6.67024 28.6667 6.66671V5.33337C31.9366 5.3369 35.0716 6.63744 37.3838 8.94962C39.696 11.2618 40.9965 14.3968 41 17.6667Z" fill="white"></path> <path d="M36.3333 17.6667H34.9999C34.9982 15.9875 34.3303 14.3776 33.143 13.1903C31.9556 12.0029 30.3458 11.3351 28.6666 11.3333V10C30.6994 10.0018 32.6484 10.8101 34.0858 12.2475C35.5232 13.6849 36.3315 15.6339 36.3333 17.6667ZM27.8599 36.48L26.8399 35.0867L26.4733 35.4667V36.48H25.5533V31.26H26.4933V33.9733C26.4993 34.0777 26.4993 34.1823 26.4933 34.2867V34.3667L27.6999 33.0333H28.7933L27.5133 34.48L28.9666 36.48H27.8599ZM33.8333 36.48V34.48C33.8333 34.0333 33.6533 33.8133 33.2733 33.8133C32.8933 33.8133 32.6066 34.0733 32.6066 34.5933V36.5H31.6399V34.5C31.6399 34.0533 31.4666 33.8333 31.0799 33.8333C30.6933 33.8333 30.4133 34.0933 30.4133 34.6133V36.52H29.4533V33H30.3933V33.4C30.4971 33.2512 30.6359 33.1302 30.7975 33.0476C30.9591 32.9651 31.1385 32.9235 31.3199 32.9267C31.525 32.9153 31.7289 32.9642 31.9066 33.0672C32.0843 33.1703 32.2279 33.323 32.3199 33.5067C32.4461 33.3222 32.6166 33.1724 32.8158 33.071C33.015 32.9697 33.2365 32.92 33.4599 32.9267C34.3399 32.9267 34.7933 33.42 34.7933 34.38V36.4933L33.8333 36.48ZM11.4266 36.26L14.5933 32.9267C15.2006 32.4106 15.591 31.6845 15.6866 30.8933C15.7092 30.7252 15.6923 30.554 15.6373 30.3935C15.5824 30.233 15.4908 30.0874 15.3698 29.9684C15.2489 29.8494 15.1019 29.7602 14.9405 29.7078C14.7791 29.6554 14.6077 29.6414 14.4399 29.6667C13.6399 29.6667 13.1066 30.1467 12.8866 31.0933L11.6933 30.8267C11.8065 30.1988 12.1255 29.6265 12.5999 29.2C13.1157 28.772 13.7699 28.5468 14.4399 28.5667C15.1067 28.5409 15.7564 28.7807 16.2466 29.2333C16.4673 29.4497 16.6405 29.7096 16.7553 29.9965C16.8701 30.2834 16.9239 30.5911 16.9133 30.9C16.8291 31.9275 16.3514 32.8828 15.5799 33.5667L14.2866 34.9C14.1714 35.0165 14.0489 35.1256 13.9199 35.2267L13.7199 35.38H16.8866V36.3333H11.4199L11.4266 36.26ZM18.9199 35.5C18.6016 35.1458 18.363 34.7275 18.2199 34.2733C17.8555 33.1237 17.8555 31.8896 18.2199 30.74C18.3719 30.282 18.6196 29.8615 18.9466 29.5067C19.2361 29.2031 19.5842 28.9615 19.9698 28.7964C20.3554 28.6313 20.7705 28.5462 21.1899 28.5462C21.6094 28.5462 22.0245 28.6313 22.4101 28.7964C22.7957 28.9615 23.1438 29.2031 23.4333 29.5067C23.7559 29.8636 24.0011 30.2835 24.1533 30.74C24.5177 31.8896 24.5177 33.1237 24.1533 34.2733C24.0026 34.7285 23.7572 35.1466 23.4333 35.5C23.1438 35.8035 22.7957 36.0452 22.4101 36.2103C22.0245 36.3754 21.6094 36.4605 21.1899 36.4605C20.7705 36.4605 20.3554 36.3754 19.9698 36.2103C19.5842 36.0452 19.2361 35.8035 18.9466 35.5H18.9199ZM22.5733 34.7067C23.0011 34.0561 23.2048 33.2836 23.1533 32.5067C23.2068 31.7295 23.0029 30.9564 22.5733 30.3067C22.4063 30.0908 22.1921 29.916 21.9471 29.7958C21.7021 29.6755 21.4328 29.613 21.1599 29.613C20.887 29.613 20.6177 29.6755 20.3727 29.7958C20.1277 29.916 19.9135 30.0908 19.7466 30.3067C19.3169 30.9564 19.1131 31.7295 19.1666 32.5067C19.1151 33.2836 19.3187 34.0561 19.7466 34.7067C19.9151 34.9203 20.1298 35.0929 20.3746 35.2116C20.6194 35.3303 20.8879 35.392 21.1599 35.392C21.432 35.392 21.7005 35.3303 21.9453 35.2116C22.1901 35.0929 22.4048 34.9203 22.5733 34.7067Z" fill="white"></path> </svg> 