<?xml version="1.0" encoding="UTF-8"?> <svg xmlns="http://www.w3.org/2000/svg" width="46" height="46" viewBox="0 0 46 46" fill="none"> <rect width="46" height="46" rx="3" fill="black"></rect> <path d="M15.6411 27.3823C15.7724 27.2695 15.8972 27.1493 16.0149 27.0223L18.3134 24.5854C18.81 24.072 19.2424 23.5001 19.6011 22.8823C19.9393 22.3044 20.1207 21.6481 20.1272 20.9785C20.1446 20.564 20.0754 20.1505 19.924 19.7642C19.7727 19.378 19.5424 19.0276 19.248 18.7354C18.9345 18.4437 18.5663 18.217 18.1646 18.0684C17.763 17.9199 17.3359 17.8524 16.908 17.87C16.0319 17.8434 15.1783 18.1502 14.5196 18.7285C13.9134 19.3075 13.5062 20.0637 13.3565 20.8885L13.315 21.0546L14.6996 21.3592V21.1931C14.9903 19.8846 15.6965 19.2546 16.8596 19.2546C17.2598 19.1886 17.6699 19.2843 17.9996 19.5205C18.3294 19.7568 18.5518 20.1144 18.618 20.5146C18.6457 20.6796 18.6457 20.8481 18.618 21.0131C18.6106 21.4995 18.4796 21.9759 18.2372 22.3977C17.9393 22.9045 17.5762 23.37 17.1572 23.7823L12.865 28.3446V28.6908H20.1895V27.3685H16.0773L15.6411 27.3823ZM27.7217 17.7454H27.3756L20.5703 25.97V26.7731H26.261V28.6908H27.7217V26.7731H28.8779V25.4992H27.7217V17.7454ZM22.6333 25.52C22.7781 25.3903 22.9145 25.2515 23.0418 25.1046L26.2194 21.0546L26.2748 20.9785V25.4992H23.2425L22.6333 25.52ZM36.7562 22.8962C36.9178 22.476 37.0045 22.0308 37.0124 21.5808C37.0218 21.0932 36.93 20.6089 36.7429 20.1585C36.5559 19.7081 36.2775 19.3013 35.9254 18.9638C35.5591 18.6089 35.1252 18.3311 34.6496 18.1467C34.1739 17.9624 33.6661 17.8754 33.1563 17.8908C32.6455 17.8727 32.1363 17.9592 31.6602 18.1449C31.184 18.3306 30.7507 18.6116 30.3871 18.9708C29.712 19.6705 29.3307 20.6023 29.3217 21.5746C29.3127 22.5468 29.6766 23.4856 30.3386 24.1977C30.6719 24.5438 31.0737 24.8167 31.5182 24.9991C31.9628 25.1815 32.4405 25.2693 32.9209 25.2569C33.232 25.253 33.5406 25.1992 33.8347 25.0977C33.7871 25.1508 33.7453 25.2088 33.7101 25.2708L31.377 28.7323H33.0178L36.0778 24.1838C36.3564 23.7844 36.5843 23.3519 36.7562 22.8962ZM33.1563 19.1992C33.4805 19.1844 33.8043 19.2384 34.1062 19.3577C34.4081 19.4771 34.6813 19.659 34.9078 19.8915C35.3299 20.3403 35.5587 20.9371 35.5447 21.5531C35.5629 22.1855 35.3317 22.7997 34.9008 23.2631C34.6751 23.4947 34.4031 23.6761 34.1024 23.7954C33.8018 23.9147 33.4794 23.9692 33.1563 23.9554C32.8314 23.9753 32.5062 23.9236 32.2035 23.804C31.9009 23.6843 31.6282 23.4997 31.4047 23.2631C31 22.7977 30.785 22.1972 30.8024 21.5808C30.7832 20.9665 31.0071 20.3694 31.4255 19.9192C31.6447 19.6811 31.913 19.4934 32.2118 19.3691C32.5106 19.2448 32.8329 19.1868 33.1563 19.1992ZM39.9408 23.9762C39.8332 23.7797 39.6719 23.6181 39.4757 23.5102C39.2795 23.4023 39.0566 23.3526 38.8331 23.3669C38.6274 23.3645 38.4237 23.408 38.2369 23.4943C38.05 23.5805 37.8848 23.7073 37.7531 23.8654C37.4582 24.2338 37.2975 24.6916 37.2975 25.1635C37.2975 25.6354 37.4582 26.0932 37.7531 26.4615C37.8855 26.6206 38.0519 26.7479 38.24 26.8342C38.4281 26.9204 38.6331 26.9634 38.84 26.96C39.051 26.9817 39.2638 26.9431 39.4537 26.8488C39.6436 26.7544 39.8029 26.6081 39.9131 26.4269V26.8354C39.9131 27.4515 39.6431 27.7631 39.1031 27.7631C38.8927 27.7643 38.6854 27.7119 38.5008 27.6108C38.3418 27.5083 38.2013 27.3796 38.0854 27.23L37.3239 27.8254C37.5008 28.0843 37.7385 28.2958 38.0162 28.4415C38.3626 28.603 38.7419 28.6813 39.1239 28.67C39.5931 28.698 40.0563 28.5526 40.4254 28.2615C40.615 28.0869 40.7627 27.8716 40.8574 27.6319C40.9521 27.3921 40.9914 27.134 40.9723 26.8769V23.4154H39.9131L39.9408 23.9762ZM39.1654 25.9977C38.667 25.9977 38.4177 25.7138 38.4177 25.1531C38.4177 24.5923 38.667 24.35 39.1654 24.35C39.6639 24.35 39.9408 24.62 39.9408 25.1738C39.9408 25.7277 39.6777 25.9977 39.1654 25.9977ZM10.7189 20.6115L5.29124 23.7615L10.7189 26.9185V25.3538L7.97736 23.7615L10.7189 22.1762V20.6115ZM5.00048 6.25308V11.3969H6.28815V6.25308H11.4319V5H6.28815C5.95255 4.99988 5.63017 5.13078 5.38965 5.36484C5.14914 5.59889 5.0095 5.91759 5.00048 6.25308ZM39.7123 5H34.5685V6.25308H39.7123V11.3969H41V6.25308C40.991 5.91759 40.8513 5.59889 40.6108 5.36484C40.3703 5.13078 40.0479 4.99988 39.7123 5ZM6.28815 34.5338H5.00048V39.6777C4.99587 39.8468 5.02463 40.0152 5.08512 40.1732C5.14561 40.3312 5.23664 40.4757 5.35301 40.5985C5.46938 40.7213 5.60881 40.82 5.76333 40.8889C5.91784 40.9577 6.08442 40.9955 6.25354 41H11.4319V39.6777H6.28815V34.5338ZM39.7123 39.6777H34.5685V41H39.7123C40.0538 41 40.3814 40.8643 40.6228 40.6228C40.8643 40.3814 41 40.0538 41 39.7123V34.5338H39.7123V39.6777Z" fill="white"></path> </svg> 