<?xml version="1.0" encoding="UTF-8"?> <svg xmlns="http://www.w3.org/2000/svg" width="46" height="46" viewBox="0 0 46 46" fill="none"> <rect width="46" height="46" rx="3" fill="black"></rect> <path d="M39.6372 6.28567V39.5599H6.36929V6.28567H39.6372ZM39.8043 4.91638H6.37571C6.01196 4.91638 5.66302 5.06044 5.4052 5.31704C5.14739 5.57365 5.0017 5.92192 5 6.28567V39.5599C5.00167 39.9215 5.1456 40.2678 5.40064 40.5241C5.65568 40.7803 6.00134 40.9258 6.36286 40.9292H39.6372C39.9987 40.9258 40.3443 40.7803 40.5994 40.5241C40.8544 40.2678 40.9983 39.9215 41 39.5599V6.13138C41.0044 5.97286 40.9765 5.81511 40.9181 5.66769C40.8596 5.52028 40.7718 5.38629 40.66 5.27385C40.5482 5.16142 40.4146 5.07289 40.2675 5.01365C40.1204 4.95441 39.9628 4.92569 39.8043 4.92924V4.91638Z" fill="white"></path> <path d="M5.85498 27.7507H40.1064V29.1136H5.85498V27.7507Z" fill="white"></path> <path d="M19.1429 20.7564H12.7143V20.1586L20.2293 10.985H20.3129V19.6893H21.6372V20.7564H20.3514V22.9293H19.1429V20.7564ZM14.6879 19.7857C15.0286 19.7857 15.2857 19.7407 15.4979 19.7407H19.0786V14.9128C19.0736 14.6549 19.0886 14.397 19.1236 14.1414C19.1236 14.0193 19.1622 13.8457 19.1622 13.7171L18.6929 14.3986L15.1122 18.9628C14.9351 19.1698 14.7345 19.3554 14.5143 19.5157C14.4307 19.6057 14.3022 19.6893 14.2186 19.7728L14.6879 19.7857Z" fill="white"></path> <path d="M20.5314 23.1028H18.95V20.9235H12.5536V20.0749L12.5986 20.0299L20.2293 10.8628H20.57V19.5606H21.8557V20.9235H20.5314V23.1028ZM19.2907 22.7556H20.1907V20.5828H21.5086V19.9014H20.1907V11.3707L12.8493 20.1971V20.5828H19.2779L19.2907 22.7556ZM14.2572 19.9849H14.1736L14.045 19.9464V19.6892H14.1736L14.4307 19.4771C14.637 19.3137 14.8226 19.1259 14.9836 18.9178L18.5643 14.3599L19.0336 13.6721L19.3357 13.8456V14.1864C19.3357 14.4821 19.2907 14.7392 19.2907 14.9514V19.9464H15.4979C15.2273 19.9428 14.9568 19.9557 14.6879 19.9849H14.2572ZM18.95 14.3599L18.8664 14.4821L15.2857 19.0914L14.7714 19.6056C15.0672 19.6056 15.3243 19.5606 15.4979 19.5606H18.9114V14.9128C18.9114 14.7842 18.95 14.6428 18.95 14.3599Z" fill="white"></path> <path d="M23.9 11.2871H25.1343V17.3878C25.1465 17.6159 25.1314 17.8447 25.0893 18.0693C25.3049 17.6049 25.5632 17.1616 25.8607 16.745L30.2964 11.3321H31.6593L27.4357 16.5328L32.2122 22.9614H30.7143L26.7029 17.42L25.1665 19.2521V22.9614H23.9V11.2871Z" fill="white"></path> <path d="M32.5528 23.1028H30.6243L26.6578 17.6835L25.295 19.3035V23.1028H23.7714V11.1135H25.3464V17.2592C25.475 17.0471 25.6486 16.8285 25.7771 16.6164L30.2771 11.1135H32.1093L27.7636 16.4878L32.5528 23.1028ZM30.7657 22.7557H31.8328L27.2686 16.5328L31.3571 11.4992H30.38L25.9893 16.8735C25.694 17.2599 25.4357 17.6731 25.2179 18.1078L24.7936 18.9628L24.8771 18.0242C24.8771 17.7671 24.9221 17.555 24.9221 17.3428V11.4285H24.0671V22.7557H24.9671V19.175L26.6707 17.0857L30.7657 22.7557Z" fill="white"></path> <path d="M15.5364 35.7672C15.39 35.6304 15.2728 35.4653 15.1922 35.2818C15.1115 35.0984 15.069 34.9005 15.0671 34.7001C15.0836 34.3015 15.2178 33.9167 15.4529 33.5943L16.6936 31.8008H17.4586L16.6486 32.9515C16.5779 33.0622 16.4913 33.1619 16.3914 33.2472L16.3464 33.2922L16.2629 33.3758C16.4313 33.2771 16.6208 33.2198 16.8157 33.2086C17.008 33.1978 17.2002 33.2303 17.3783 33.3038C17.5563 33.3772 17.7156 33.4897 17.8443 33.6329C18.1094 33.9081 18.2609 34.2731 18.2686 34.6551C18.2781 34.8518 18.2464 35.0483 18.1755 35.2321C18.1047 35.4158 17.9962 35.5828 17.8571 35.7222C17.7053 35.8693 17.5247 35.9835 17.3267 36.0576C17.1287 36.1317 16.9175 36.1642 16.7064 36.1529C16.4949 36.1815 16.2797 36.1617 16.077 36.0948C15.8743 36.028 15.6895 35.916 15.5364 35.7672ZM17.33 35.3429C17.4147 35.2591 17.4812 35.1588 17.5255 35.0482C17.5697 34.9376 17.5907 34.8191 17.5871 34.7001C17.5923 34.5808 17.572 34.4618 17.5277 34.351C17.4834 34.2402 17.416 34.14 17.33 34.0572C17.2438 33.9621 17.1386 33.886 17.0213 33.834C16.9039 33.7819 16.777 33.755 16.6486 33.7551C16.5236 33.7507 16.3991 33.7712 16.2821 33.8153C16.1651 33.8595 16.0581 33.9264 15.9671 34.0122C15.8335 34.2148 15.76 34.451 15.755 34.6936C15.7517 34.8121 15.7722 34.93 15.8153 35.0404C15.8584 35.1508 15.9231 35.2515 16.0057 35.3365C16.0973 35.4229 16.2055 35.4896 16.3238 35.5327C16.4421 35.5758 16.5679 35.5944 16.6936 35.5872C16.8106 35.5912 16.9272 35.5716 17.0366 35.5296C17.1459 35.4877 17.2457 35.4242 17.33 35.3429ZM19.3807 35.6836C19.203 35.4776 19.0577 35.2456 18.95 34.9958C18.8502 34.6792 18.794 34.3504 18.7829 34.0186C18.7723 33.6829 18.8291 33.3485 18.95 33.0351C19.0248 32.7711 19.1744 32.5344 19.3807 32.3536C19.5461 32.1788 19.7454 32.0396 19.9665 31.9446C20.1876 31.8495 20.4258 31.8006 20.6664 31.8008C20.9084 31.7914 21.1494 31.8362 21.3718 31.9318C21.5942 32.0275 21.7925 32.1716 21.9521 32.3536C22.1174 32.5614 22.2536 32.7906 22.3571 33.0351C22.4564 33.354 22.5126 33.6848 22.5243 34.0186C22.5354 34.3523 22.4785 34.6848 22.3571 34.9958C22.2839 35.2607 22.1368 35.4993 21.9329 35.6836C21.7668 35.8575 21.5673 35.9962 21.3464 36.0912C21.1254 36.1861 20.8876 36.2356 20.6471 36.2365C20.172 36.2114 19.7221 36.015 19.3807 35.6836ZM21.47 35.2143C21.7137 34.848 21.8332 34.413 21.8107 33.9736C21.8332 33.5362 21.7137 33.1033 21.47 32.7393C21.3717 32.6184 21.2478 32.521 21.1071 32.454C20.9664 32.3871 20.8126 32.3523 20.6568 32.3523C20.501 32.3523 20.3471 32.3871 20.2065 32.454C20.0658 32.521 19.9418 32.6184 19.8436 32.7393C19.5999 33.1033 19.4804 33.5362 19.5029 33.9736C19.4804 34.413 19.5998 34.848 19.8436 35.2143C19.9431 35.3332 20.0675 35.4288 20.208 35.4944C20.3485 35.56 20.5017 35.594 20.6568 35.594C20.8118 35.594 20.965 35.56 21.1055 35.4944C21.246 35.4288 21.3704 35.3332 21.47 35.2143ZM23.4307 34.0186H23V33.4658H23.4307V33.0351C23.4307 32.3922 23.7264 32.0965 24.2793 32.0965C24.4255 32.0897 24.5712 32.1169 24.7051 32.176C24.839 32.2351 24.9573 32.3246 25.0507 32.4372L24.665 32.8679C24.5873 32.7802 24.4838 32.7194 24.3693 32.6943C24.1957 32.6943 24.0671 32.8229 24.0671 33.0801V33.5043H24.7936V34.0186H24.0671V36.1529H23.4243L23.4307 34.0186ZM25.3593 33.4658H26.0021V33.9736C26.0839 33.7971 26.2175 33.6496 26.3852 33.5508C26.5528 33.452 26.7466 33.4067 26.9407 33.4208C27.1091 33.4203 27.2758 33.4542 27.4306 33.5206C27.5854 33.5869 27.7249 33.6842 27.8407 33.8065C27.963 33.9454 28.0562 34.1074 28.1148 34.283C28.1733 34.4586 28.196 34.6441 28.1814 34.8286C28.1936 35.2043 28.0652 35.5711 27.8214 35.8572C27.7092 35.9822 27.5712 36.0814 27.4169 36.148C27.2626 36.2146 27.0958 36.2469 26.9278 36.2429C26.7383 36.2578 26.5486 36.217 26.3819 36.1257C26.2152 36.0344 26.0787 35.8964 25.9893 35.7286V37.5672H25.3464V33.4658H25.3593ZM27.5321 34.7515C27.5321 34.1986 27.275 33.9415 26.7671 33.9415C26.2593 33.9415 25.9957 34.1986 25.9957 34.7515C25.9957 35.3043 26.2528 35.6065 26.7671 35.6065C27.2814 35.6065 27.5643 35.3429 27.5643 34.7836L27.5321 34.7515ZM29.0686 35.9922C28.8825 35.9235 28.7303 35.7852 28.6443 35.6065L29.0686 35.3108C29.1529 35.4222 29.2631 35.5115 29.3897 35.5709C29.5162 35.6302 29.6553 35.6579 29.795 35.6515C30.0907 35.6515 30.2643 35.5615 30.2643 35.3493C30.2643 35.1372 30.0521 35.0922 29.6214 34.9636C29.4273 34.9038 29.2415 34.8196 29.0686 34.7129C28.986 34.6454 28.9199 34.5599 28.8753 34.463C28.8307 34.3661 28.8089 34.2603 28.8114 34.1536C28.8032 34.0369 28.827 33.9201 28.8802 33.8159C28.9334 33.7117 29.0141 33.6239 29.1136 33.5622C29.3088 33.4131 29.5495 33.3359 29.795 33.3436C29.987 33.3412 30.1766 33.3854 30.3478 33.4722C30.4855 33.5607 30.6146 33.6619 30.7336 33.7743L30.3478 34.1536C30.2782 34.0757 30.193 34.0132 30.0978 33.97C30.0026 33.9269 29.8995 33.904 29.795 33.9029C29.5378 33.9029 29.4093 33.9865 29.4093 34.1536C29.4093 34.2822 29.6214 34.4108 30.0071 34.5008C30.1019 34.5407 30.2012 34.5688 30.3028 34.5843C30.4169 34.6115 30.5214 34.6693 30.605 34.7515C30.6969 34.8217 30.7715 34.9122 30.8227 35.0158C30.874 35.1195 30.9007 35.2337 30.9007 35.3493C30.9086 35.4617 30.89 35.5743 30.8464 35.6781C30.8029 35.7819 30.7356 35.8741 30.65 35.9472C30.5382 36.0428 30.4083 36.1148 30.268 36.159C30.1277 36.2032 29.9799 36.2186 29.8336 36.2043C29.5694 36.172 29.3116 36.1005 29.0686 35.9922Z" fill="white"></path> </svg> 